{
  "accessors": [
    {
      "bufferView": 1,
      "componentType": 5126,
      "count": 2063,
      "max": [
        4.860211372375488,
        0.17557430267333984,
        8.740589141845703
      ],
      "min": [
        -4.7544050216674805,
        -0.12442635744810104,
        0.17905569076538086
      ],
      "type": "VEC3"
    },
    {
      "bufferView": 1,
      "byteOffset": 24756,
      "componentType": 5126,
      "count": 2063,
      "max": [
        0.9994650483131409,
        1.0,
        0.9999273419380188
      ],
      "min": [
        -1.0,
        -1.0,
        -0.9999422430992126
      ],
      "type": "VEC3"
    },
    {
      "bufferView": 0,
      "componentType": 5125,
      "count": 7620,
      "type": "SCALAR"
    }
  ],
  "asset": {
    "extras": {
      "author": "Raed 47 (https://sketchfab.com/raeed354)",
      "license": "CC-BY-4.0 (http://creativecommons.org/licenses/by/4.0/)",
      "source": "https://sketchfab.com/3d-models/syria-0dbcb01b6fda4016b589d81e171c1389",
      "title": "Syria"
    },
    "generator": "Sketchfab-12.65.0",
    "version": "2.0"
  },
  "bufferViews": [
    {
      "buffer": 0,
      "byteLength": 30480,
      "name": "floatBufferViews",
      "target": 34963
    },
    {
      "buffer": 0,
      "byteLength": 49512,
      "byteOffset": 30480,
      "byteStride": 12,
      "name": "floatBufferViews",
      "target": 34962
    }
  ],
  "buffers": [
    {
      "byteLength": 79992,
      "uri": "scene.bin"
    }
  ],
  "extensionsUsed": [
    "KHR_materials_clearcoat"
  ],
  "materials": [
    {
      "doubleSided": true,
      "extensions": {
        "KHR_materials_clearcoat": {
          "clearcoatFactor": 1.0,
          "clearcoatRoughnessFactor": 0.0
        }
      },
      "name": "Scene_-_Root",
      "pbrMetallicRoughness": {
        "baseColorFactor": [
          1.0,
          0.5122415946564827,
          0.0,
          1.0
        ],
        "metallicFactor": 0.0,
        "roughnessFactor": 0.0
      }
    }
  ],
  "meshes": [
    {
      "name": "Object_0",
      "primitives": [
        {
          "attributes": {
            "NORMAL": 1,
            "POSITION": 0
          },
          "indices": 2,
          "material": 0,
          "mode": 4
        }
      ]
    }
  ],
  "nodes": [
    {
      "children": [
        1
      ],
      "matrix": [
        0.18973836302757263,
        0.0,
        0.0,
        0.0,
        0.0,
        4.213037985757953e-17,
        -0.18973836302757263,
        0.0,
        0.0,
        0.18973836302757263,
        4.213037985757953e-17,
        0.0,
        0.0,
        0.0,
        0.0,
        1.0
      ],
      "name": "Sketchfab_model"
    },
    {
      "children": [
        2
      ],
      "name": "ca28488b665e461ba1af98cd33791d4f.stl.cleaner.materialmerger.gles"
    },
    {
      "mesh": 0,
      "name": "Object_2"
    }
  ],
  "scene": 0,
  "scenes": [
    {
      "name": "Sketchfab_Scene",
      "nodes": [
        0
      ]
    }
  ]
}
